#!OML:ASF H:\Terrain\Patient Classification 1\Takeo\Monday\TakeoMonday.ASF
:FULLY-SPECIFIED
:DEGREES
1618
root 9.37486 16.9421 -3.47621 -6.62225 18.3624 3.50209
lowerback 8.86966 6.59853 8.01758
upperback 6.1055 9.33662 3.19376
thorax 2.20344 4.89124 -1.66253
lowerneck -14.7547 -3.88325 -1.45855
upperneck 5.09383 -4.86477 -0.299161
head 3.91743 -2.44441 -0.225028
rclavicle -7.35503e-015 -5.40694e-014
rhumerus 19.4204 45.1661 -114.059
rradius 50.3302
rwrist -73.396
rhand -17.5307 -12.3129
rfingers 7.12502
rthumb 8.72322 -42.1126
lclavicle -7.35503e-015 -5.40694e-014
lhumerus 54.8283 18.153 119.195
lradius 10.752
lwrist -66.5405
lhand -42.0164 34.0355
lfingers 7.12502
lthumb -14.911 63.4788
rfemur 3.74365 -27.8798 16.7394
rtibia 37.3254
rfoot -37.0591 -29.9675
rtoes 7.8974
lfemur -22.0569 -13.3298 -24.967
ltibia 30.3201
lfoot 2.3687 -9.9001
ltoes -3.6708
1619
root 9.35994 16.9485 -3.44257 -6.3675 18.8104 3.90353
lowerback 8.78803 7.05501 7.6243
upperback 6.07508 9.91147 3.05453
thorax 2.22162 5.1695 -1.60897
lowerneck -14.6314 -4.05146 -1.53406
upperneck 4.56573 -5.09049 -0.145071
head 4.1883 -2.54609 -0.192648
rclavicle -9.0447e-014 -2.22639e-014
rhumerus 18.9394 45.5761 -114.346
rradius 50.3607
rwrist -73.5719
rhand -18.3894 -11.0912
rfingers 7.12502
rthumb 7.89451 -40.9238
lclavicle -9.0447e-014 -2.22639e-014
lhumerus 54.1856 17.5817 117.082
lradius 10.7004
lwrist -64.0143
lhand -41.7588 33.9541
lfingers 7.12502
lthumb -14.6628 63.4156
rfemur 3.89442 -28.0395 16.4027
rtibia 37.063
rfoot -37.5771 -29.7052
rtoes 8.35788
lfemur -22.1126 -13.4943 -25.4153
ltibia 30.322
lfoot 2.35503 -10.215
ltoes -5.15017
1620
root 9.34654 16.9565 -3.4142 -6.28554 19.1632 3.86031
lowerback 8.90923 7.51241 7.78138
upperback 5.91289 10.5496 2.90783
thorax 2.09779 5.48787 -1.88876
lowerneck -14.3852 -4.21039 -1.31658
upperneck 4.35976 -5.35968 0.0168079
head 4.06396 -2.66593 -0.189365
rclavicle -3.40916e-014 1.59028e-014
rhumerus 18.6537 45.7308 -114.562
rradius 49.978
rwrist -73.2565
rhand -18.5933 -9.53988
rfingers 7.12502
rthumb 7.69768 -39.3798
lclavicle -3.40916e-014 1.59028e-014
lhumerus 53.6539 17.4886 116.18
lradius 10.7839
lwrist -62.9901
lhand -41.5048 34.8255
lfingers 7.12502
lthumb -14.4181 64.3047
rfemur 4.03022 -28.0914 16.5727
rtibia 36.7743
rfoot -38.3481 -29.4836
rtoes 9.11688
lfemur -22.1872 -13.6113 -25.393
ltibia 30.3261
lfoot 2.42465 -10.5455
ltoes -6.07587
1621
root 9.33772 16.9567 -3.39128 -6.41189 19.5249 3.31707
lowerback 9.06188 7.80322 8.40291
upperback 5.78699 11.0002 2.90042
thorax 2.04825 5.72547 -2.25862
lowerneck -14.1469 -4.22299 -1.08767
upperneck 4.17012 -5.4278 0.10864
head 3.94388 -2.6908 -0.195149
rclavicle -1.43026e-013 2.38542e-014
rhumerus 18.4029 46.2572 -114.683
rradius 49.6813
rwrist -73.0919
rhand -19.0914 -8.10645
rfingers 7.12502
rthumb 7.21689 -37.9634
lclavicle -1.43026e-013 2.38542e-014
lhumerus 54.837 20.1988 120.108
lradius 10.7302
lwrist -66.8524
lhand -41.852 34.566
lfingers 7.12502
lthumb -14.7525 64.021
rfemur 4.18621 -28.0986 17.2906
rtibia 36.4487
rfoot -38.6777 -29.7195
rtoes 9.27798
lfemur -22.2348 -13.8613 -24.8609
ltibia 30.3451
lfoot 2.35763 -10.6713
ltoes -6.27506
1622
root 9.3292 16.9559 -3.36607 -6.54907 19.8687 3.00871
lowerback 9.20068 8.04174 8.70467
upperback 5.70397 11.3578 2.89552
thorax 1.98446 5.90797 -2.45427
lowerneck -13.8393 -4.22541 -1.11937
upperneck 4.13528 -5.44727 0.317461
head 3.87862 -2.69153 -0.113126
rclavicle 1.00386e-014 -1.74931e-014
rhumerus 17.9936 46.974 -114.898
rradius 49.5375
rwrist -73.174
rhand -19.9891 -6.75377
rfingers 7.12502
rthumb 6.35037 -36.6386
lclavicle 1.00386e-014 -1.74931e-014
lhumerus 56.3744 22.9332 124.206
lradius 10.594
lwrist -70.7458
lhand -42.3339 33.9618
lfingers 7.12502
lthumb -15.2168 63.3822
rfemur 4.45716 -28.0687 17.717
rtibia 36.1041
rfoot -38.7232 -29.995
rtoes 9.24267
lfemur -22.1461 -14.2028 -24.5441
ltibia 30.3711
lfoot 2.23604 -10.6132
ltoes -5.68575
1623
root 9.32223 16.9568 -3.33642 -6.53229 20.2534 3.14857
lowerback 9.24639 8.23964 8.48044
upperback 5.62745 11.6144 2.7826
thorax 1.88343 6.02705 -2.47691
lowerneck -13.7531 -4.2571 -1.28003
upperneck 4.30247 -5.49357 0.668655
head 3.93954 -2.69972 0.0279574
rclavicle -9.59136e-014 -2.54444e-014
rhumerus 17.4879 47.8125 -115.279
rradius 49.3831
rwrist -73.3976
rhand -21.3544 -5.03606
rfingers 7.12502
rthumb 5.03216 -34.9563
lclavicle -9.59136e-014 -2.54444e-014
lhumerus 55.5044 22.291 121.512
lradius 10.4979
lwrist -67.823
lhand -42.3034 34.8493
lfingers 7.12502
lthumb -15.1874 64.2719
rfemur 4.76427 -28.138 17.6005
rtibia 35.7781
rfoot -38.6254 -30.3649
rtoes 9.15408
lfemur -22.0028 -14.5872 -24.6966
ltibia 30.3912
lfoot 2.27128 -10.4753
ltoes -3.82973
1624
root 9.31953 16.955 -3.30835 -6.24045 20.7467 3.576
lowerback 9.12037 8.43958 7.98518
upperback 5.53152 11.8376 2.52916
thorax 1.82426 6.12614 -2.47724
lowerneck -13.7002 -4.27369 -1.26251
upperneck 4.2766 -5.54689 1.0123
head 3.93191 -2.70809 0.136888
rclavicle 1.59028e-014 -1.59028e-015
rhumerus 17.1557 48.4824 -115.621
rradius 49.2186
rwrist -73.6558
rhand -23.2047 -2.75717
rfingers 7.12502
rthumb 3.24539 -32.7122
lclavicle 1.59028e-014 -1.59028e-015
lhumerus 54.6879 21.5944 118.968
lradius 10.5212
lwrist -65.4867
lhand -41.5307 36.1258
lfingers 7.12502
lthumb -14.443 65.6032
rfemur 4.88681 -28.3251 17.2393
rtibia 35.5085
rfoot -38.3862 -30.8523
rtoes 8.90338
lfemur -22.0495 -14.9745 -25.1802
ltibia 30.3818
lfoot 2.37581 -10.4886
ltoes -2.2545
1625
root 9.31457 16.962 -3.2841 -6.00521 21.1813 3.71201
lowerback 9.04274 8.70773 7.85185
upperback 5.38296 12.1844 2.29043
thorax 1.76966 6.29462 -2.65928
lowerneck -13.6331 -4.31466 -1.09377
upperneck 4.32192 -5.65302 1.2687
head 3.9394 -2.74399 0.185266
rclavicle -2.40529e-014 1.43125e-014
rhumerus 17.2333 48.7952 -115.569
rradius 48.9486
rwrist -73.8538
rhand -24.3102 -1.22708
rfingers 7.12502
rthumb 2.17776 -31.1957
lclavicle -2.40529e-014 1.43125e-014
lhumerus 53.3525 20.1074 115.73
lradius 10.6205
lwrist -62.2516
lhand -40.8435 36.3265
lfingers 7.12502
lthumb -13.7808 65.8501
rfemur 4.8712 -28.373 17.2962
rtibia 35.242
rfoot -37.7994 -31.5287
rtoes 7.74403
lfemur -22.2111 -15.3017 -25.3295
ltibia 30.3888
lfoot 2.32986 -10.6993
ltoes -2.34581
1626
root 9.30852 16.9719 -3.26203 -6.02305 21.5842 3.49202
lowerback 9.06369 8.91044 8.05109
upperback 5.25383 12.4766 2.19882
thorax 1.71769 6.44184 -2.87299
lowerneck -13.4674 -4.30495 -1.08777
upperneck 4.3881 -5.66765 1.55256
head 3.94084 -2.73724 0.280739
rclavicle 1.5207e-014 2.54444e-014
rhumerus 17.1911 49.0701 -115.592
rradius 48.5624
rwrist -73.7603
rhand -24.8377 -0.562295
rfingers 7.12502
rthumb 1.66834 -30.5355
lclavicle 1.5207e-014 2.54444e-014
lhumerus 52.2854 18.8718 113.212
lradius 10.528
lwrist -59.0478
lhand -41.2724 35.744
lfingers 7.12502
lthumb -14.1941 65.2391
rfemur 5.00153 -28.3788 17.6777
rtibia 34.9104
rfoot -37.4568 -32.199
rtoes 6.28526
lfemur -22.2775 -15.6883 -25.1129
ltibia 30.4744
lfoot 2.23213 -10.8247
ltoes -2.47347
1627
root 9.30638 16.9727 -3.23987 -6.07786 22.0061 3.2634
lowerback 8.96422 8.94721 8.14868
upperback 5.2389 12.5249 2.19287
thorax 1.78422 6.47057 -2.9113
lowerneck -13.4496 -4.1931 -1.3764
upperneck 4.40108 -5.50037 1.92885
head 3.96412 -2.64105 0.470799
rclavicle 1.33186e-014 -3.49861e-014
rhumerus 17.0892 49.908 -115.535
rradius 48.2775
rwrist -73.6502
rhand -25.7286 0.488125
rfingers 7.12502
rthumb 0.807907 -29.4901
lclavicle 1.33186e-014 -3.49861e-014
lhumerus 53.7793 21.581 116.966
lradius 10.2626
lwrist -62.6738
lhand -41.7566 35.3884
lfingers 7.12502
lthumb -14.6606 64.8501
rfemur 5.22511 -28.4114 18.0164
rtibia 34.5661
rfoot -38.0987 -32.2668
rtoes 6.98316
lfemur -22.2969 -16.1279 -24.9063
ltibia 30.5794
lfoot 2.28816 -10.948
ltoes -2.55124
1628
root 9.30519 16.9729 -3.21567 -6.2095 22.4238 2.91663
lowerback 8.82206 8.90642 8.28454
upperback 5.23257 12.4684 2.23314
thorax 1.8692 6.4478 -2.91231
lowerneck -13.5289 -4.06815 -1.5892
upperneck 4.55617 -5.31763 2.1426
head 4.04804 -2.54277 0.591601
rclavicle -1.7672e-013 2.38542e-014
rhumerus 17.082 51.0467 -115.3
rradius 48.0852
rwrist -73.8725
rhand -26.8318 2.17095
rfingers 7.12502
rthumb -0.257589 -27.8086
lclavicle -1.7672e-013 2.38542e-014
lhumerus 54.4008 22.9095 118.296
lradius 10.4529
lwrist -63.6786
lhand -41.8417 36.1888
lfingers 7.12502
lthumb -14.7427 65.6445
rfemur 5.41437 -28.4393 18.4521
rtibia 34.3551
rfoot -38.8254 -32.0456
rtoes 9.17623
lfemur -22.2475 -16.5653 -24.592
ltibia 30.5924
lfoot 2.36525 -11.146
ltoes -3.61762
